<?xml version="1.0" encoding="UTF-8" standalone="no"?>
<!-- Generator: Adobe Illustrator 23.0.6, SVG Export Plug-In . SVG Version: 6.00 Build 0)  -->

<svg
   xmlns:dc="http://purl.org/dc/elements/1.1/"
   xmlns:cc="http://creativecommons.org/ns#"
   xmlns:rdf="http://www.w3.org/1999/02/22-rdf-syntax-ns#"
   xmlns:svg="http://www.w3.org/2000/svg"
   xmlns="http://www.w3.org/2000/svg"
   xmlns:sodipodi="http://sodipodi.sourceforge.net/DTD/sodipodi-0.dtd"
   xmlns:inkscape="http://www.inkscape.org/namespaces/inkscape"
   version="1.1"
   id="svg2"
   x="0px"
   y="0px"
   viewBox="0 0 226 312"
   style="enable-background:new 0 0 226 312;"
   xml:space="preserve"
   sodipodi:docname="jte.svg"
   inkscape:version="0.92.2 5c3e80d, 2017-08-06"><metadata
     id="metadata3895"><rdf:RDF><cc:Work
         rdf:about=""><dc:format>image/svg+xml</dc:format><dc:type
           rdf:resource="http://purl.org/dc/dcmitype/StillImage" /><dc:title /></cc:Work></rdf:RDF></metadata><defs
     id="defs3893" /><style
     type="text/css"
     id="style3825">
	.st0{fill-rule:evenodd;clip-rule:evenodd;fill:#D33833;}
	.st1{fill:#EF3D3A;}
	.st2{fill:#231F20;}
	.st3{fill-rule:evenodd;clip-rule:evenodd;fill:#F0D6B7;}
	.st4{fill-rule:evenodd;clip-rule:evenodd;fill:#6D6B6D;}
	.st5{fill-rule:evenodd;clip-rule:evenodd;fill:#DCD9D8;}
	.st6{fill-rule:evenodd;clip-rule:evenodd;fill:#F7E4CD;}
	.st7{fill:#F7E4CD;}
	.st8{fill-rule:evenodd;clip-rule:evenodd;fill:#F0D6B7;stroke:#231F20;stroke-width:4;stroke-miterlimit:10;}
	.st9{fill-rule:evenodd;clip-rule:evenodd;fill:#5C398E;}
	.st10{fill-rule:evenodd;clip-rule:evenodd;fill:#FFFFFF;stroke:#231F20;stroke-width:5;stroke-miterlimit:10;}
	.st11{fill:#33CCCC;stroke:#231F20;stroke-width:5;stroke-miterlimit:10;}
	.st12{fill:#D33833;stroke:#231F20;stroke-width:5;stroke-miterlimit:10;}
	.st13{fill-rule:evenodd;clip-rule:evenodd;fill:#FFFFFF;}
	.st14{fill-rule:evenodd;clip-rule:evenodd;fill:#7959AC;}
	.st15{fill-rule:evenodd;clip-rule:evenodd;fill:#231F20;}
	.st16{fill:#FFFFFF;}
	.st17{font-family:'Knockout-28JuniorFeathrwt';}
	.st18{font-size:14.7449px;}
	.st19{letter-spacing:0.6;}
</style><sodipodi:namedview
     bordercolor="#666666"
     borderopacity="1"
     gridtolerance="10"
     guidetolerance="10"
     id="namedview4"
     inkscape:current-layer="g10"
     inkscape:cx="225.41042"
     inkscape:cy="183.05682"
     inkscape:pageopacity="0"
     inkscape:pageshadow="2"
     inkscape:window-height="1028"
     inkscape:window-maximized="1"
     inkscape:window-width="1680"
     inkscape:window-x="0"
     inkscape:window-y="0"
     inkscape:zoom="2"
     objecttolerance="10"
     pagecolor="#ffffff"
     showgrid="false" /><g
     id="g10"
     transform="matrix(1.25,0,0,-1.25,0,312)"
     inkscape:groupmode="layer"
     inkscape:label="ink_ext_XXXXXX"><g
       id="g226"
       transform="matrix(0.93348115,0,0,0.96303472,1.7263859,-18.145229)"><g
         transform="translate(1.9,17.1)"
         id="g3393"><path
           style="clip-rule:evenodd;fill:#d33833;fill-rule:evenodd"
           d="m 177.7,129.3 c -0.6,-51.4 -39.3,-90 -87.5,-89.5 -48.3,0.4 -87.5,40 -87.5,89.5 0,49.4 39.2,89.5 87.5,89.5 48.3,0 87.5,-40.1 87.5,-89.5"
           class="st0"
           inkscape:connector-curvature="0"
           id="path22" /><path
           style="fill:#ef3d3a"
           d="m 6.3,107.1 c 0,0 -6.3,93.3 79.7,96 l -6,10 L 33.3,197.4 20,182.1 8.3,159.8 l -6.7,-26 2,-17.3"
           class="st1"
           inkscape:connector-curvature="0"
           id="path24" /><path
           style="fill:#231f20"
           d="M 30.3,190.3 C 14.9,174.6 5.4,152.9 5.4,128.9 v 0 c 0,-24 9.5,-45.7 24.9,-61.4 v 0 C 45.7,51.8 66.8,42.1 90.2,42.1 v 0 c 23.4,0 44.6,9.7 59.9,25.4 v 0 c 15.4,15.7 24.9,37.4 24.9,61.4 v 0 c 0,24 -9.5,45.7 -24.9,61.4 v 0 c -15.4,15.7 -36.5,25.4 -59.9,25.4 v 0 C 66.8,215.7 45.6,206 30.3,190.3 Z M 26.4,63.7 C 10.1,80.4 0,103.5 0,128.9 v 0 c 0,25.4 10.1,48.5 26.4,65.2 v 0 c 16.3,16.7 38.9,27 63.8,27 v 0 c 24.9,0 47.5,-10.3 63.8,-27 v 0 c 16.3,-16.7 26.4,-39.7 26.4,-65.2 v 0 c 0,-25.4 -10.1,-48.5 -26.4,-65.2 v 0 C 137.7,47 115.1,36.7 90.2,36.7 v 0 c -24.9,0 -47.5,10.4 -63.8,27 v 0"
           class="st2"
           inkscape:connector-curvature="0"
           id="path26" /><path
           style="clip-rule:evenodd;fill:#f0d6b7;fill-rule:evenodd"
           d="m 127.1,128.8 -15.7,-7 -15.4,-0.9 -12.2,0.3 -11.1,3.5 -8.7,2.7 -7.7,8.3 -6,17 -1.3,3.7 -8,2.7 -4.7,7.7 -3.3,11 3.7,9.7 8.7,3 7,-3.3 3.3,-7.3 4,0.7 1.3,1.7 -1.3,7.7 -0.3,9.7 2,13.3 -0.1,7.6 6.1,9.7 10.7,7.7 18.7,8 20.7,-3 18,-13 8.3,-13.3 5.3,-9.7 1.3,-24 -4,-20.7 -7.3,-18.3 -7,-9.7"
           class="st3"
           inkscape:connector-curvature="0"
           id="path28" /><path
           style="clip-rule:evenodd;fill:#6d6b6d;fill-rule:evenodd"
           d="m 36.7,187.4 8.7,3 7,-3.3 3.3,-7.3 4,0.7 1,4 -2,7.7 2,18.3 -1.7,10 6,7 13,10.3 -3.7,5 -18.3,-9 -7.7,-6 -4.3,-9.3 -6.7,-9 -2,-10.7 1.4,-11.4"
           class="st4"
           inkscape:connector-curvature="0"
           id="path32" /><path
           style="clip-rule:evenodd;fill:#dcd9d8;fill-rule:evenodd"
           d="m 50.4,218.8 c 0,0 5,12.3 25,18.3 20,6 1,4.3 1,4.3 l -21.7,-8.3 -8.3,-8.3 -3.7,-6.7 7.7,0.7"
           class="st5"
           inkscape:connector-curvature="0"
           id="path34" /><path
           style="clip-rule:evenodd;fill:#dcd9d8;fill-rule:evenodd"
           d="m 40.4,189.8 c 0,0 -7,23.3 19.7,26.7 l -1,4 -18.3,-4.3 -5.3,-17.3 1.3,-11.3 3.6,2.2"
           class="st5"
           inkscape:connector-curvature="0"
           id="path36" /><path
           style="clip-rule:evenodd;fill:#f7e4cd;fill-rule:evenodd"
           d="m 51,158.8 4.4,4.2 c 0,0 2,-0.2 2.3,-2.6 0.3,-2.3 1.3,-23.3 15.7,-34.7 1.3,-1 -10.7,1.7 -10.7,1.7 L 52,144.1"
           class="st6"
           inkscape:connector-curvature="0"
           id="path38" /><path
           style="clip-rule:evenodd;fill:#f7e4cd;fill-rule:evenodd"
           d="m 90.5,157.3 c 0.4,0.6 2.9,1.5 6.2,-0.2 0,0 -4,-0.7 -3.7,-7.3 l -1.7,0.3 c 0.1,0 -1.6,6 -0.8,7.2"
           class="st6"
           inkscape:connector-curvature="0"
           id="path132" /><path
           style="clip-rule:evenodd;fill:#f7e4cd;fill-rule:evenodd"
           d="m 112.4,165.1 c 0,0 0.8,10.1 3.5,9.3 2.7,-0.8 2.7,-3.5 2.7,-3.5 0,0 -6.6,-4.2 -6.2,-5.8"
           class="st6"
           inkscape:connector-curvature="0"
           id="path40" /><path
           style="fill:#f7e4cd"
           d="m 140.1,202.1 c 0,0 -5.5,-1.2 -6,-6 -0.5,-4.8 6,-1 7,-0.7"
           class="st7"
           inkscape:connector-curvature="0"
           id="path42" /><path
           style="fill:#f7e4cd"
           d="m 99.7,201.8 c 0,0 -7.3,-1 -7.3,-5.7 0,-4.7 8.3,-4.3 10.7,-2.3"
           class="st7"
           inkscape:connector-curvature="0"
           id="path44" /><path
           style="clip-rule:evenodd;fill:#f7e4cd;fill-rule:evenodd"
           d="m 54.4,180.1 c 0,0 -12.7,7.7 -14,0.3 -1.3,-7.3 -4.3,-12.7 2,-20.3 l -4.3,1.3 -4,10.3 -1.3,10 7.7,8 8.7,-0.7 5,-4 0.2,-4.9"
           class="st6"
           inkscape:connector-curvature="0"
           id="path46" /><path
           style="clip-rule:evenodd;fill:#f7e4cd;fill-rule:evenodd"
           d="m 60.4,201.1 c 0,0 5.7,29.3 34.3,35 23.6,4.7 36,-1 40.7,-6.3 0,0 -21,25 -41,17.3 -20,-7.7 -34.7,-21.7 -34.3,-30.7 0.5,-15.3 0.3,-15.3 0.3,-15.3"
           class="st6"
           inkscape:connector-curvature="0"
           id="path48" /><path
           style="clip-rule:evenodd;fill:#f7e4cd;fill-rule:evenodd"
           d="m 137.7,226.4 c 0,0 -9.7,0.3 -10,-8.3 0,0 0,-1.3 0.7,-2.7 0,0 7.7,8.7 12.3,4"
           class="st6"
           inkscape:connector-curvature="0"
           id="path50" /><path
           style="clip-rule:evenodd;fill:#f7e4cd;fill-rule:evenodd"
           d="m 95.4,214.5 c 0,0 -1.7,13.3 -13,5.6 -7.3,-5 -6.7,-12 -5.3,-13.3 1.3,-1.3 1,-4 2,-2.2 1,1.8 0.7,7.8 4.3,9.5 3.6,1.7 9.7,3.5 12,0.4"
           class="st6"
           inkscape:connector-curvature="0"
           id="path52" /><polygon
           transform="matrix(1,0,0,0.9891031,0,1.4220453)"
           style="clip-rule:evenodd;fill:#f0d6b7;fill-rule:evenodd"
           id="polygon3844"
           points="118.7,70.2 89.7,83.8 95.1,94.2 87.4,91.5 84.4,95.2 80.4,112.5 77.1,113.5 69.7,115.8 63.4,121.5 56.1,130.5 47.7,127.2 21.1,108.8 22.7,103.5 30.4,80.8 31,20.7 33.3,16.7 39.8,11.2 70,14.7 75.4,40.1 64.7,43.7 115.1,68.2 "
           class="st3" /><path
           style="clip-rule:evenodd;fill:#f0d6b7;fill-rule:evenodd;stroke:#231f20;stroke-width:4;stroke-miterlimit:10"
           inkscape:connector-curvature="0"
           id="path3846"
           d="m 166.3,72.3 c 6.2,-57.2 -6.4,-57.9 -24.9,-51.5 -4.2,1.8 9.9,29.8 9.9,29.8 l -7.2,38.4 3.8,0.6 c 0,0 16.5,0.7 18.4,-17.3 z"
           class="st8" /><path
           style="clip-rule:evenodd;fill:#5c398e;fill-rule:evenodd"
           inkscape:connector-curvature="0"
           id="path3848"
           d="m 140.1,135.8 -3,2.7 -8,-8 -16.7,-7.8 -19.4,-3 -29.4,4.7 -7.3,9 L 48,130 21.3,111.7 23,106.4 30.7,83.7 32.2,66.6 c 0,0 7.2,-3.2 16.6,-3.7 11.6,-0.6 18.6,3.1 18.6,3.1 l 2.7,2.1 -0.3,-45.4 h 72.4 l 1.8,48.2 22.4,-1 -1.1,55.8 z"
           class="st9" /><ellipse
           style="clip-rule:evenodd;fill:#ffffff;fill-rule:evenodd;stroke:#231f20;stroke-width:5;stroke-miterlimit:10"
           id="ellipse3850"
           ry="16"
           rx="12.6"
           cy="37.200001"
           cx="148.10001"
           class="st10" /><path
           sodipodi:nodetypes="cscccccccc"
           class="st12"
           d="m 121.1,34.8 c 4.7,-0.6 15,-6.3 15,5 0,11.5 -11.2,4.6 -15.5,3.8 -1.1,-0.2 -2.1,2.5 -2.1,2.5 l -0.3,15.5 H 94.1 v -42 h 24.3 v 12.6 c 0,0 1.1,2.8 2.7,2.6 z"
           id="path3854"
           inkscape:connector-curvature="0"
           style="fill:#d33833;stroke:#231f20;stroke-width:5;stroke-miterlimit:10" /><path
           style="clip-rule:evenodd;fill:#7959ac;fill-rule:evenodd"
           d="m 63.4,126.3 -31.3,-14 7.8,-45.7 -5.1,0.9 -2.8,1 -7.3,34.8 -3.7,10.3 32.7,22 9.7,-9.3"
           class="st14"
           inkscape:connector-curvature="0"
           id="path54" /><path
           style="clip-rule:evenodd;fill:#7959ac;fill-rule:evenodd"
           d="m 64,90.9 c 0,6.1 5.3,10.2 6.5,0 C 69.8,74.3 69,66.5 69,66.5 l -5,-1.7 c 0,0 0,20 0,26.1 z"
           class="st14"
           inkscape:connector-curvature="0"
           id="path56_2_" /><path
           style="clip-rule:evenodd;fill:#f7e4cd;fill-rule:evenodd"
           d="m 65.5,45.7 -13.7,-1.1 5.6,-3 10.1,-2.4"
           class="st6"
           inkscape:connector-curvature="0"
           id="path64" /><path
           style="clip-rule:evenodd;fill:#7959ac;fill-rule:evenodd"
           d="m 130.7,131.4 32.8,-10.5 -2.6,7.7 -23.9,9.8 -6.3,-7"
           class="st14"
           inkscape:connector-curvature="0"
           id="path66" /><path
           style="clip-rule:evenodd;fill:#ffffff;fill-rule:evenodd"
           d="m 71,17.6 13,3.7 9.7,0.5 3.2,6 1.2,5.7 4.4,2.3 8.6,5.3 -1.3,9.5 -3.9,7.7 -6,2.4 L 89,55.9 83.2,48 l -2,-1.8 -4.2,0.1 -5.4,1 -4.2,-1.7"
           class="st13"
           inkscape:connector-curvature="0"
           id="path72" /><path
           style="clip-rule:evenodd;fill:#dcd9d8;fill-rule:evenodd"
           d="m 69.8,21.9 c 0,0 10.9,4.6 12.3,4.3 l -4.2,21.1 4.3,1.7 c 0,0 3.5,-20.1 3.5,-22.1 l 9.3,0.7 v -7.9 l -6.6,0.5 -11.7,-1.7 -5.9,-1.9"
           class="st5"
           inkscape:connector-curvature="0"
           id="path74" /><path
           style="clip-rule:evenodd;fill:#231f20;fill-rule:evenodd"
           d="m 95.4,214.5 c -9.1,2.1 -13.6,-3.8 -16.4,-9.9 -2.5,0.6 -1.5,3.9 -0.9,5.6 1.6,4.5 8.2,10.4 13.5,9.6 2.4,-0.3 5.5,-2.4 3.8,-5.3"
           class="st15"
           inkscape:connector-curvature="0"
           id="path100" /><path
           style="clip-rule:evenodd;fill:#231f20;fill-rule:evenodd"
           d="m 139.7,204.2 c 0.1,0 0.3,0 0.4,0 2.1,-4.3 3.8,-8.8 6.4,-12.5 -1.7,-4 -13.1,-7.6 -13,-0.4 2.5,1.1 6.7,0.2 8.9,1.6 -1.2,3.4 -3,6.4 -2.7,11.3"
           class="st15"
           inkscape:connector-curvature="0"
           id="path102" /><path
           style="clip-rule:evenodd;fill:#231f20;fill-rule:evenodd"
           d="m 100,204.1 c 1.9,-3.6 2.6,-7.3 5.4,-10 1.2,-1.2 3.7,-2.7 2.5,-6.1 -0.3,-0.8 -2.3,-2.6 -3.5,-2.9 -4.3,-1.3 -14.4,-0.3 -11,5.1 3.6,-0.2 8.4,-2.3 11.1,0.3 -2.1,3.2 -5.8,9.7 -4.5,13.6"
           class="st15"
           inkscape:connector-curvature="0"
           id="path104" /><path
           style="clip-rule:evenodd;fill:#231f20;fill-rule:evenodd"
           d="m 138,167.8 c -6.5,-4.2 -13.8,-8.7 -24.5,-7.7 -2.3,2 -3.2,6.4 -0.9,9.3 1.2,-2 0.4,-5.6 3.6,-6.2 6.1,-1 13.1,3.7 17.5,5.4 2.7,4.6 -0.2,6.2 -2.7,9.2 -5,6 -11.7,13.5 -11.4,22.5 2,1.5 2.2,-2.2 2.5,-2.9 2.6,-6.1 9.2,-13.9 13.9,-19.1 1.2,-1.3 3.1,-2.5 3.3,-3.4 0.7,-2.5 -1.5,-5.5 -1.3,-7.1"
           class="st15"
           inkscape:connector-curvature="0"
           id="path106" /><path
           style="clip-rule:evenodd;fill:#231f20;fill-rule:evenodd"
           d="m 52.1,172.2 c -2,1.2 -2.5,6.3 -4.9,6.4 -3.4,0.2 -2.8,-6.7 -2.8,-10.7 -2.4,2.1 -2.8,8.7 -1,12.1 -2,1 -2.9,-1.1 -4,-1.8 1.4,10.3 15,4.8 12.7,-6"
           class="st15"
           inkscape:connector-curvature="0"
           id="path108" /><path
           style="clip-rule:evenodd;fill:#231f20;fill-rule:evenodd"
           d="m 142.2,163.5 c -3,-5.8 -7.3,-12.1 -16.2,-12.3 -0.2,1.9 -0.3,4.7 0,5.8 6.8,0.7 11,4.1 16.2,6.5"
           class="st15"
           inkscape:connector-curvature="0"
           id="path110" /><path
           style="clip-rule:evenodd;fill:#231f20;fill-rule:evenodd"
           d="m 99.5,159.8 c 5.7,-3 16.1,-3.3 23.8,-3.1 0.4,-1.7 0.4,-3.8 0.4,-5.8 -9.8,-0.5 -21.6,1.9 -24.2,8.9"
           class="st15"
           inkscape:connector-curvature="0"
           id="path112" /><path
           style="clip-rule:evenodd;fill:#231f20;fill-rule:evenodd"
           d="m 98.4,154.2 c 3.9,-9.9 17.4,-8.7 28.8,-8.5 -0.5,-1.3 -1.6,-2.8 -2.9,-3.3 -3.6,-1.5 -13.7,-2.6 -18.8,0.1 -3.2,1.7 -5.3,5.6 -7,7.8 -0.8,1.1 -5.1,3.9 -0.1,3.9"
           class="st15"
           inkscape:connector-curvature="0"
           id="path114" /><path
           sodipodi:nodetypes="ccccccscccscccccccccccccccccccccccccccccccccccccccccccccccccccccccscccccccccccccccccccccccccccccccccccccccccccccccccsccccccsccc"
           style="clip-rule:evenodd;fill:#231f20;fill-rule:evenodd"
           d="m 69.8,44.5 c 0.7,-7.4 2.6,-15.6 3.2,-23.4 2.5,-0.1 4.5,0.5 5.9,1.5 -0.8,6.6 -1.3,14 -2.5,21.6 z m 27,-10.7 c 5.6,4.5 14.1,6.7 13.3,8.7 -0.8,2 -4.4,0.9 -7.7,0 -4,-1.1 -8.3,-4 -8.3,-3.6 2.7,5.3 10.8,7.1 13.8,7.3 1,0 1.3,3.1 -0.5,3.6 -1.8,0.5 -4.2,0.6 -8.4,-1.4 -3.8,-1.7 -7,-5.7 -7.1,-5.5 1.5,5.9 8.7,8.8 13.8,9.8 1.3,1 0.4,2.7 -1.5,3.2 -0.6,0.2 -9.2,-1.6 -15.1,-8.2 3,8.2 13.7,8.9 13.3,9.7 -0.5,0.8 -2.9,1.1 -4.5,0.8 -1.8,-0.3 -4.9,-1.9 -5.8,-2.3 -5,-2.1 -10.9,-11.4 -10.9,-11.4 0,0 -1.1,-0.1 -1.6,-0.4 1.8,-5.9 2.3,-14 3.1,-21.5 2.5,-0.2 7.8,0.5 9.4,0.5 2.3,0.1 3.7,2.7 4.7,10.7 z m 33.3,95.4 v 0 M 69,19.7 c 0,0 -6.9,-1.4 -19.4,-2.4 -7,-0.5 -13,0 -15,6.8 -0.3,9.2 0.8,29 -0.6,38.1 0,0 7.6,-1.8 15.7,-1.9 7,-0.1 15.6,1.7 17.7,2.5 C 67.2,61.1 67.1,49.2 66.5,48 63.1,47.2 53.1,47 51.8,44.6 c 4.3,0.5 13.6,-0.5 13.6,-0.5 z m -9.6,106.6 -4.3,3.9 C 44,125.8 33.6,118.3 24.4,111.1 c 4.3,-9.2 9.7,-29.2 10,-42.9 0,0 6.1,-2.7 15.5,-2.9 9.1,-0.2 16.3,2.1 17.8,2.8 0,4.8 0.3,20.7 0.5,23.3 0.1,0.8 0.4,4.7 2.3,4 1.7,-0.6 -0.1,-10.2 0.1,-14.5 0.2,-3.9 -1.2,-30.1 0.4,-32.5 1.6,0.2 7.9,-0.8 7.9,-0.8 5.4,10.6 12.8,14.2 20.8,14.1 2.7,0 10,-0.7 12.4,-17.6 0.6,-4.2 -2.2,-5.7 -5.8,-7.5 -2.5,-1.2 -4.4,-3.2 -6.6,-4.1 C 99.8,28.6 99,19.7 94.9,18.9 89.1,17.7 83.3,17.8 83.3,17.8 78.7,18.1 45,7.3 36.7,13.2 c -2.9,1.3 -5.3,4.2 -6.4,6.5 -1.1,2.2 -0.6,6.5 -0.9,10.6 -0.7,10.4 0.9,40 -1.8,50.6 -1.2,4.8 -2.8,11.8 -4.3,16.4 -1.4,4.3 -3.8,9.5 -4.4,13.8 -0.9,6.3 5,6.6 8.8,9.4 5.9,4.2 10.5,6.5 16.8,10.4 1.9,1.1 7.5,4 8.2,5.3 1.3,2.6 -2.2,6.3 -3.1,8.3 -1.5,3.2 -2.2,6 -2.5,9.2 -5.3,0.8 -9.4,4 -11.8,7.6 -4,5.9 -6.8,16.8 -3.3,25.2 0.3,0.7 1.6,1.9 1.8,2.9 0.4,2 -0.7,4.6 -0.8,6.7 -0.4,10.8 1.8,20.1 9.1,23.4 3,11.8 13.5,15.7 23.5,21.5 3.7,2.2 7.8,3.6 12.1,5.1 15.2,5.6 38.5,4.5 51.2,-5 5.4,-4 13.9,-12.6 17,-18.8 8.1,-16.3 7.5,-43.6 1.9,-63.5 -1.1,-8 -5.9,-17.9 -8.1,-21.3 0,0 27.6,-5.3 27.8,-12.6 0.5,-4.8 1.6,-48.1 -0.1,-56.6 l -19.7,0.6 0.2,-7.8 -4.3,2.5 c 0,0 0.1,23.1 2.4,32.1 0.3,1 2.3,-22.2 2.3,-22.2 l 16.1,-0.2 c 0,0 -0.2,47.8 -1.7,51.5 -1.2,2.9 -22.3,7.1 -26.2,10.2 -1.6,-2.3 -18.1,-18.3 -46.1,-16.9 -16.9,0.9 -31,8.2 -31,8.2 m -17.7,84.9 c -4.4,-4.8 -3.5,-13.9 -2.9,-20.4 8,5 18.5,-0.4 18.4,-8.9 3.8,0.1 1.4,4.7 0.7,7.7 -2.2,9.8 3.8,20.4 0.3,29.3 -6.8,-0.4 -12.4,-3.2 -16.5,-7.7 z m 31.6,28.1 c -10,-2.8 -22.7,-10.1 -26.8,-19 3.2,0.5 5.4,2.1 8.5,2.3 1.2,0.1 2.7,-0.5 4.1,-0.2 2.7,0.7 5,6.7 7,9 2,2.2 4.4,3.1 6,5.2 1.1,0.5 2.6,0.5 2.7,2.1 -0.5,0.4 -1,0.8 -1.5,0.6 z m 51.9,-2.6 c -10.3,5.8 -27.9,10.2 -38.9,4.7 -8.9,-4.4 -20.9,-11.8 -25,-21 3.8,-9 -1.1,-17.2 -1.4,-26.3 -0.2,-4.8 2.3,-9.1 2.5,-14.3 -1.3,-2.2 -5.3,-2.4 -8.1,-2.3 -0.9,4.7 -2.6,9.9 -7.4,10.4 -6.8,0.7 -11.8,-4.9 -12.1,-10.8 -0.4,-6.9 5.3,-18.4 13.3,-17.6 3.1,0.3 3.9,3.4 7.3,3.4 1.8,-3.7 -2.8,-4.8 -3.3,-7.4 -0.1,-0.7 0.4,-3.3 0.7,-4.6 1.5,-6 4.7,-13.8 7.9,-18.4 4.1,-5.8 16.5,-9.8 25.1,-10.3 0,0 17.7,-2 23.6,1.4 0,0 -5.4,-1.5 -12.7,0.8 -7.3,2.3 -13,9 -16.4,12.8 -3.9,4.3 -7.9,8.9 -8.1,14.6 7.4,-10.2 13.5,-19.2 26.9,-23.7 10.2,-3.4 22,1.6 29.8,7 3.2,2.3 5.2,5.9 7.5,9.2 8.6,12.4 12.6,30.1 11.8,47.2 -0.4,7.1 -0.3,14.1 -2.7,18.9 -2.5,5 -10.9,9.4 -15.8,4.9 -0.9,4.8 4.1,7.8 9.9,6.1 -4.1,5.4 -8.5,11.9 -14.4,15.3 z"
           class="st15"
           inkscape:connector-curvature="0"
           id="path130" /><path
           style="clip-rule:evenodd;fill:#231f20;fill-rule:evenodd"
           inkscape:connector-curvature="0"
           id="path3876"
           d="m 82.7,40.5 c 0,0 0.4,2 1.9,4 1.6,2 3.4,1.7 3.4,1.7 0,0 -1.5,-0.7 -2.5,-2 -1,-1.4 -2.8,-3.7 -2.8,-3.7 z"
           class="st15" /><path
           style="clip-rule:evenodd;fill:#231f20;fill-rule:evenodd"
           inkscape:connector-curvature="0"
           id="path3878"
           d="m 84.3,32.5 c 0,0 0.9,1.8 3,3.3 2.1,1.5 3.8,0.6 3.8,0.6 0,0 -1.6,-0.2 -3,-1.2 -1.4,-1 -3.8,-2.7 -3.8,-2.7 z"
           class="st15" /><path
           style="clip-rule:evenodd;fill:#231f20;fill-rule:evenodd"
           inkscape:connector-curvature="0"
           id="path3880"
           d="m 83.6,37.1 c 0,0 0.7,1.9 2.4,3.6 1.7,1.7 3.1,1.1 3.1,1.1 0,0 -1.3,-0.4 -2.4,-1.5 -1.2,-1.2 -3.1,-3.2 -3.1,-3.2 z"
           class="st15" /></g><g
         transform="translate(1.6)"
         id="g3955"><text
           y="-145.76654"
           x="57.289875"
           style="font-size:11.76229095px;font-family:Knockout-28JuniorFeathrwt;letter-spacing:0.47863162;fill:#ffffff;stroke-width:0.79771936"
           id="text3883"
           class="st16 st17 st18 st19"
           transform="matrix(1.3779475,0.14151482,0,-0.72571705,0,0)"><tspan
             id="tspan3903"
             style="font-style:normal;font-variant:normal;font-weight:normal;font-stretch:normal;font-size:10.66666698px;font-family:Knockout-28JuniorFeathrwt;-inkscape-font-specification:'Knockout-28JuniorFeathrwt, Normal';font-variant-ligatures:normal;font-variant-caps:normal;font-variant-numeric:normal;font-feature-settings:normal;text-align:start;writing-mode:lr-tb;text-anchor:start;stroke-width:0.79771936">PEOPLE</tspan></text>
<text
           y="-129.61801"
           x="56.321926"
           style="font-size:11.47945118px;font-family:Knockout-28JuniorFeathrwt;fill:#ffffff;stroke-width:0.77853709"
           id="text3885"
           class="st16 st17 st18"
           transform="matrix(1.3448129,0.13812331,0,-0.74359786,0,0)"><tspan
             id="tspan3899"
             style="font-style:normal;font-variant:normal;font-weight:normal;font-stretch:normal;font-size:10.66666698px;font-family:Knockout-28JuniorFeathrwt;-inkscape-font-specification:'Knockout-28JuniorFeathrwt, Normal';font-variant-ligatures:normal;font-variant-caps:normal;font-variant-numeric:normal;font-feature-settings:normal;text-align:start;writing-mode:lr-tb;text-anchor:start;stroke-width:0.77853709">PURPOSE</tspan></text>
<text
           y="-117.18494"
           x="57.883476"
           style="font-size:11.47945118px;font-family:Knockout-28JuniorFeathrwt;fill:#ffffff;stroke-width:0.77853709"
           id="text3887"
           class="st16 st17 st18"
           transform="matrix(1.3448129,0.13812331,0,-0.74359786,0,0)"><tspan
             id="tspan3901"
             style="font-style:normal;font-variant:normal;font-weight:normal;font-stretch:normal;font-size:10.66666698px;font-family:Knockout-28JuniorFeathrwt;-inkscape-font-specification:'Knockout-28JuniorFeathrwt, Normal';font-variant-ligatures:normal;font-variant-caps:normal;font-variant-numeric:normal;font-feature-settings:normal;text-align:start;writing-mode:lr-tb;text-anchor:start;stroke-width:0.77853709">PASSION</tspan></text>
</g><path
         sodipodi:nodetypes="cccscccccc"
         class="st11"
         d="m 118.2,61.6 0.16615,-10.126915 c 0,0 -0.30068,-4.494382 2.10476,-4.187947 4.30974,0.817161 17.43942,7.660879 17.43942,-6.945863 0,-14.504598 -12.12742,-8.68233 -16.83806,-8.069459 -1.60362,0.204289 -2.70612,-2.655772 -2.70612,-2.655772 L 118.4,19.6 148.33389,19.308118 v 42.583764 z"
         id="path3852"
         inkscape:connector-curvature="0"
         style="fill:#33cccc;stroke:#231f20;stroke-width:5.059062;stroke-miterlimit:10"
         transform="translate(1.9,17.1)" /><path
         style="clip-rule:evenodd;fill:#ffffff;fill-rule:evenodd"
         d="m 158,32.6 -11.9,0.1 -2.1,1.2 -1,7.5 1,9.6 1.7,5.1 12.5,0.7 0.4,-5.2 1.3,-4.4 -0.3,-2.5 0.3,-4.5 -1.7,-2.2 0.4,-3.1 z"
         class="st13"
         inkscape:connector-curvature="0"
         id="path72_2_"
         transform="translate(1.9,17.1)" /><path
         style="fill:#231f20"
         inkscape:connector-curvature="0"
         id="path3859"
         d="m 159.1,56.5 c 0,0 -14.8,4.4 -16.4,-2.9 -0.1,-0.5 0.5,-2.3 0.3,-2.9 -0.1,-0.8 -1.3,-2.3 -1.2,-3.1 0,-1.3 0.3,-2.2 0.6,-3.6 0.2,-1.2 -0.7,-3 -0.5,-4.1 0.2,-1.1 1.3,-2.3 0.9,-4 -1.3,-4.8 3.8,-4.6 7.8,-4.9 8.2,-0.5 10.7,3.5 9.3,6.3 2.8,2.7 0.6,6.7 0.6,6.7 0,0 2.3,3.1 -0.5,6.5 1.9,3.2 -0.9,6 -0.9,6 z M 145.2,35.1 c 0.7,2 10.3,1.7 13.7,2.1 4.1,0.5 -4.4,2.9 -13,2.1 -0.9,-0.4 -2.4,2.4 -0.9,3.5 1.5,1.1 8.1,1.4 12.8,1.1 4.2,-0.2 -0.6,3.1 -12.9,1.2 -1.6,0.4 -0.7,3.3 0.9,4.5 0.2,0.2 12.9,0.4 12.9,0.4 0,0 -0.3,1.8 -11.8,1.6 -1.8,1.5 -2,3.3 3,3.9 1.8,0.2 6,-0.6 6,-0.6 3.8,-1.8 0.6,-4.6 0.6,-4.6 5.6,-2.5 0,-6.1 0,-6.1 0,0 2.2,0.4 2.2,-3 0,-3.4 -1.7,-3.4 -1.7,-3.4 0,0 1.3,-0.7 1.1,-2.6 -0.2,-1.9 -3.6,-2.3 -3.6,-2.3 0,0 -10.5,-1.5 -9.3,2.2 z"
         class="st2"
         transform="translate(1.9,17.1)" /></g></g></svg>